# xmcd
#
# Track frame offsets:
# 150
# 12698
# 27823
# 41334
# 56402
# 70805
# 83923
# 96888
# 111039
# 124394
# 137095
# 151713
# 165703
# 177739
# 192209
#
# Disc length: 2770 seconds
#
# Revision: 1
# Processed by: cddbd v1.5.1PL2 Copyright (c) Steve Scherf et al.
# Submitted via: Easy CD Ripper v2.37
#
DISCID=c70ad00f
DTITLE=The Carter Family - Give Me Roses While I Live
DYEAR=1997
DGENRE=Country
TTITLE0=Sweet as the Flowers in Maytime
TTITLE1=Will the Roses Bloom in Heaven
TTITLE2=My Little Home in Tennessee
TTITLE3=The Sun of the Soul
TTITLE4=If One Won't Another Will
TTITLE5=The Broken Hearted Lover
TTITLE6=Two Sweethearts
TTITLE7=The Winding Stream
TTITLE8=I Wouldn't Mind Dying
TTITLE9=The Spirit of Love Watches Over Me
TTITLE10=The Church in the Wildwood
TTITLE11=Give Me Roses While I Live
TTITLE12=I Never Will Marry
TTITLE13=On the Sea of Galilee
TTITLE14=Home by the Sea
EXTD=
EXTT0=
EXTT1=
EXTT2=
EXTT3=
EXTT4=
EXTT5=
EXTT6=
EXTT7=
EXTT8=
EXTT9=
EXTT10=
EXTT11=
EXTT12=
EXTT13=
EXTT14=
PLAYORDER=
